{"title":"SCREAMERS [1].DEWSTRR","uid":4859559,"size":1175429570,"categoryP":"video","categoryS":"movies","magnet":"?xt=urn:btih:9a9f1c72fdb2cb2711947883f94af43961f86791&amp;dn=SCREAMERS+%5B1%5D.DEWSTRR&amp;tr=udp%3A%2F%2Ftracker.openbittorrent.com%3A80&amp;tr=udp%3A%2F%2Fopen.demonii.com%3A1337&amp;tr=udp%3A%2F%2Ftracker.coppersurfer.tk%3A6969&amp;tr=udp%3A%2F%2Fexodus.desync.com%3A6969","seeders":2,"leechers":0,"uploader":"dewstrr505","files":14,"time":1240204504,"description":"SCREAMERS [1] 1995 DVDRIP ENGLISH\n\nAction | Adventure | Drama | Horror | Sci-Fi | Thriller\n\n(SIRIUS 6B, Year 2078) On a distant mining planet ravaged by a decade of war, scientists have created the perfect weapon: a blade-wielding, self-replicating race of killing devices known as Screamers designed for one purpose only, to hunt down and destroy all enemy life forms But man's greatest weapon has continued to evolve without any human guidance, and now it has devised a new mission: to obliterate all life. Col. Hendricksson (Peter Weller) is commander of a handful of Alliance soldiers still alive on Sirius 6B. Betrayed by his own political leaders and disgusted by the atrocities of this never-ending war, Hendricksson decides he must negotiate a separate peace with the New Economic Bloc's decimated forces. But to do so, he will have to cross a treacherous wasteland where the deadliest threat comes from the very weapons he helped to create.\n\n[IMG]http://i203.photobucket.com/albums/aa38/476352oop/MOVIES/SCR1CP.jpg[/IMG]\n &lt;a href=&quot;\nhttp://www.imdb.com/title/tt0114367/&quot; rel=&quot;nofollow&quot; target=&quot;_NEW&quot;&gt;\nhttp://www.imdb.com/title/tt0114367/&lt;/a&gt;\n\nFormat :      AVI\nFormat/Info :     Audio Video Interleave\nFile size :     1.09 GiB\nDuration :     1h 48mn\nOverall bit rate :     1 446 Kbps\nWriting application :     VirtualDubMod 1.5.4.1 (build 2178/release)\nWriting library :     VirtualDubMod build 2178/release\n\nVideo\nFormat :     MPEG-4 Visual\nFormat settings, BVOP :     Yes\nFormat settings, QPel :     No\nFormat settings, GMC :     No warppoints\nFormat settings, Matrix :     Default\nMuxing mode :     Packed bitstream\nCodec ID :     DX50\nCodec ID/Hint :     DivX 5\nDuration :     1h 48mn\nBit rate :     1 247 Kbps\nWidth :     576 pixels\nHeight :     432 pixels\nDisplay aspect ratio :     4/3\nFrame rate :     23.976 fps\nResolution :     24 bits\nColorimetry :     4:2:0\nScan type :     Progressive\nBits/(Pixel*Frame) :     0.209\nStream size :     967 MiB (86%)\nWriting library :     DivX 2816\n\nAudio\nFormat :     AC-3\nFormat/Info :     Audio Coding 3\nFormat profile :     Dolby Digital\nCodec ID :     2000\nDuration :     1h 48mn\nBit rate mode :     Constant\nBit rate :     192 Kbps\nChannel(s) :     2 channels\nChannel positions :     L R\nSampling rate :     48.0 KHz\nStream size :     149 MiB (13%)\nAlignment :     Split accross interleaves\nInterleave, duration :     96 ms (2.30 video frames)\nInterleave, preload duration :     96 ms\n\nGeneral\nComplete name : SCREAMERS [1]. DEWSTRRSCR 1 1.sfv\nFile size :     1.68 KiB\n\nGeneral\nComplete name : SCREAMERS [1].\nFile size :     47.0 Bytes\n\n[IMG]http://i203.photobucket.com/albums/aa38/476352oop/MOVIES/SCR11.jpg[/IMG]\n[IMG]http://i203.photobucket.com/albums/aa38/476352oop/MOVIES/SCR12.jpg[/IMG]\n[IMG]http://i203.photobucket.com/albums/aa38/476352oop/MOVIES/SCR13.jpg[/IMG]\n[IMG]http://i203.photobucket.com/albums/aa38/476352oop/MOVIES/SCR14.jpg[/IMG]\n[IMG]http://i203.photobucket.com/albums/aa38/476352oop/MOVIES/SCR15.jpg[/IMG]\n[IMG]http://i203.photobucket.com/albums/aa38/476352oop/MOVIES/SCR16.jpg[/IMG]\n[IMG]http://i203.photobucket.com/albums/aa38/476352oop/MOVIES/SCR17.jpg[/IMG]\n[IMG]http://i203.photobucket.com/albums/aa38/476352oop/MOVIES/SCR18.jpg[/IMG]\n[IMG]http://i203.photobucket.com/albums/aa38/476352oop/MOVIES/SCR19.jpg[/IMG]\n[IMG]http://i203.photobucket.com/albums/aa38/476352oop/MOVIES/SCR110.jpg[/IMG]\nburned with windows [with a couple of other movies on a disk] and played on my philips divx ultra certified dvd player\nbe sure to set your dvd player on the correct aspect ratio","torrent":{"xt":"urn:btih:9a9f1c72fdb2cb2711947883f94af43961f86791","amp;dn":"SCREAMERS+%5B1%5D.DEWSTRR","amp;tr":["udp%3A%2F%2Ftracker.openbittorrent.com%3A80","udp%3A%2F%2Fopen.demonii.com%3A1337","udp%3A%2F%2Ftracker.coppersurfer.tk%3A6969","udp%3A%2F%2Fexodus.desync.com%3A6969"],"infoHash":"9a9f1c72fdb2cb2711947883f94af43961f86791","infoHashBuffer":{"type":"Buffer","data":[154,159,28,114,253,178,203,39,17,148,120,131,249,74,244,57,97,248,103,145]},"announce":[],"urlList":[]}}